<svg width="50" height="50" viewBox="0 0 50 50" fill="none" xmlns="http://www.w3.org/2000/svg">
<path d="M20.3123 3.125C20.3123 1.39648 21.7088 0 23.4373 0H26.5623C28.2909 0 29.6873 1.39648 29.6873 3.125V16.8848L41.6014 10.0098C43.0955 9.15039 45.0096 9.6582 45.869 11.1523L47.4315 13.8574C48.2909 15.3516 47.783 17.2656 46.2889 18.125L34.3748 25L46.2889 31.875C47.783 32.7344 48.3006 34.6484 47.4315 36.1426L45.869 38.8477C45.0096 40.3418 43.0955 40.8594 41.6014 39.9902L29.6873 33.1152V46.875C29.6873 48.6035 28.2909 50 26.5623 50H23.4373C21.7088 50 20.3123 48.6035 20.3123 46.875V33.1152L8.39828 40C6.90414 40.8594 4.99007 40.3516 4.1307 38.8574L2.5682 36.1523C1.70883 34.6582 2.21664 32.7441 3.71078 31.8848L15.6248 25L3.71078 18.125C2.21664 17.2656 1.70883 15.3516 2.5682 13.8574L4.1307 11.1523C4.99007 9.64844 6.90414 9.14063 8.39828 10L20.3123 16.875V3.125Z" fill="#3F82C2"/>
</svg>
